G04 DipTrace 3.3.0.1*
G04 Bottom.gbr*
%MOMM*%
G04 #@! TF.FileFunction,Copper,L2,Bot*
G04 #@! TF.Part,Single*
G04 #@! TA.AperFunction,Conductor*
%ADD13C,0.2*%
%ADD14C,0.8*%
G04 #@! TA.AperFunction,ComponentPad*
%ADD16R,1.8X2.0*%
%ADD17O,1.8X2.0*%
%ADD18O,2.0X1.5*%
%ADD19R,2.0X1.5*%
%ADD20R,2.0X1.7*%
%ADD21O,2.0X1.7*%
%ADD22C,1.5*%
%ADD23R,1.7X2.0*%
%ADD24O,1.7X2.0*%
G04 #@! TA.AperFunction,ViaPad*
%ADD25C,1.016*%
%FSLAX35Y35*%
G04*
G71*
G90*
G75*
G01*
G04 Bottom*
%LPD*%
X1824000Y3669000D2*
D14*
Y1344000D1*
X1922000Y1246000D1*
X2780000D1*
X3024000D1*
X3080000Y1302000D1*
Y2005383D1*
Y2534317D1*
Y3030000D1*
X3890000D1*
X4110000Y3250000D1*
X4770000D1*
X4880000Y3360000D1*
Y4140000D1*
X4980000Y4240000D1*
X5610000D1*
X5927000Y3923000D1*
X6140000D1*
X3080000Y2005383D2*
X2781383D1*
X2780000Y2004000D1*
X3080000Y3030000D2*
X2786000D1*
X2780000Y3024000D1*
X3080000Y2534317D2*
X2780317D1*
X2780000Y2534000D1*
X6140000Y2145000D2*
D13*
X6075000D1*
X5930000Y2290000D1*
Y3080000D1*
X5860000Y3150000D1*
X5531000D1*
X5520000Y3161000D1*
X5519000D1*
X5150000Y3530000D1*
X6140000Y1637000D2*
X5937000D1*
X5870000Y1704000D1*
Y2570000D1*
X5787000Y2653000D1*
X5520000D1*
X4960000Y3110000D2*
X5120000D1*
X5170000Y3060000D1*
Y2700000D1*
X5217000Y2653000D1*
X5520000D1*
X3950000Y2800000D2*
Y2650000D1*
X4100000Y2500000D1*
X5000000D1*
X5310000Y2190000D1*
Y1530000D1*
X5430000Y1410000D1*
X6350000D1*
X6400000Y1460000D1*
Y2360000D1*
X6361000Y2399000D1*
X6140000D1*
X3974000Y1250000D2*
Y1374000D1*
X4060000Y1460000D1*
X5100000D1*
X5360000Y1200000D1*
X6550000D1*
X6630000Y1280000D1*
Y3350000D1*
X6565000Y3415000D1*
X6140000D1*
X3964000Y1750000D2*
Y1616000D1*
X4060000Y1520000D1*
X5130000D1*
X5380000Y1270000D1*
X6490000D1*
X6550000Y1330000D1*
Y3110000D1*
X6499000Y3161000D1*
X6140000D1*
X3960000Y2260000D2*
Y2110000D1*
X4080000Y1990000D1*
X5020000D1*
X5190000Y1820000D1*
Y1550000D1*
X5400000Y1340000D1*
X6430000D1*
X6470000Y1380000D1*
Y2610000D1*
X6427000Y2653000D1*
X6140000D1*
X3270000Y3260000D2*
X3140000D1*
X3060000Y3340000D1*
Y4170000D1*
X3220000Y4330000D1*
X4390000D1*
X4610000Y4110000D1*
D25*
X3270000Y3260000D3*
D16*
X4990000Y1250000D3*
D17*
X3974000D3*
D16*
X4980000Y1750000D3*
D17*
X3964000D3*
D16*
X4976000Y2260000D3*
D17*
X3960000D3*
D16*
X4966000Y2800000D3*
D17*
X3950000D3*
D18*
X2780000Y1500000D3*
D19*
Y1246000D3*
D20*
X1570000Y3923000D3*
D21*
Y3669000D3*
Y3415000D3*
Y3161000D3*
Y2907000D3*
Y2653000D3*
Y2399000D3*
Y2145000D3*
Y1891000D3*
Y1637000D3*
D20*
X6140000Y3923000D3*
D21*
Y3669000D3*
Y3415000D3*
Y3161000D3*
Y2907000D3*
Y2653000D3*
Y2399000D3*
Y2145000D3*
Y1891000D3*
Y1637000D3*
D20*
X1824000Y3923000D3*
D21*
Y3669000D3*
D20*
X5520000Y3923000D3*
D21*
Y3669000D3*
Y3415000D3*
Y3161000D3*
Y2907000D3*
Y2653000D3*
Y2399000D3*
Y2145000D3*
Y1891000D3*
Y1637000D3*
D18*
X2780000Y2280000D3*
D19*
Y2534000D3*
D18*
Y2770000D3*
D19*
Y3024000D3*
D22*
X2770000Y3440000D3*
X2340000Y4200000D3*
X4610000Y4110000D3*
X4650000Y3540000D3*
X3550000Y1250000D3*
Y1750000D3*
X4960000Y3110000D3*
X3550000Y2260000D3*
X5150000Y3530000D3*
X3550000Y2800000D3*
X5210000Y4073000D3*
D23*
X3526000Y4003000D3*
D24*
X3780000D3*
D23*
X4034000D3*
D24*
X4288000D3*
D18*
X2780000Y1750000D3*
D19*
Y2004000D3*
M02*
