M48
METRIC,0000.00
T01C0.486
T02C0.889
T03C0.9
T04C1.067
T05C1.321
%
T01
X+003270Y+003260
T02
X+002780Y+001500
X+002780Y+001750
X+002780Y+002004
X+002780Y+002280
X+002780Y+002534
X+002780Y+002770
X+002780Y+003024
X+002780Y+001246
T03
X+002770Y+003440
X+002340Y+004200
X+003550Y+002800
X+003550Y+002260
X+003550Y+001750
X+003550Y+001250
X+004960Y+003110
X+005150Y+003530
X+004650Y+003540
X+004610Y+004110
X+005210Y+004073
T04
X+001570Y+003923
X+001824Y+003923
X+001824Y+003669
X+001570Y+003669
X+001570Y+003415
X+001570Y+003161
X+001570Y+002907
X+001570Y+002653
X+001570Y+002399
X+001570Y+002145
X+001570Y+001891
X+001570Y+001637
X+003526Y+004003
X+003780Y+004003
X+004034Y+004003
X+004288Y+004003
X+005520Y+003923
X+005520Y+003669
X+005520Y+003415
X+005520Y+003161
X+005520Y+002907
X+005520Y+002653
X+005520Y+002399
X+005520Y+002145
X+005520Y+001891
X+005520Y+001637
X+006140Y+001637
X+006140Y+001891
X+006140Y+002145
X+006140Y+002399
X+006140Y+002653
X+006140Y+002907
X+006140Y+003161
X+006140Y+003415
X+006140Y+003669
X+006140Y+003923
T05
X+004990Y+001250
X+004980Y+001750
X+004976Y+002260
X+004966Y+002800
X+003950Y+002800
X+003960Y+002260
X+003964Y+001750
X+003974Y+001250
T00
M30
