G04 DipTrace 3.3.0.1*
G04 Top.gbr*
%MOMM*%
G04 #@! TF.FileFunction,Copper,L1,Top*
G04 #@! TF.Part,Single*
G04 #@! TA.AperFunction,Conductor*
%ADD13C,0.2*%
%ADD14C,0.8*%
%ADD15R,1.5X1.3*%
G04 #@! TA.AperFunction,ComponentPad*
%ADD16R,1.8X2.0*%
%ADD17O,1.8X2.0*%
%ADD18O,2.0X1.5*%
%ADD19R,2.0X1.5*%
%ADD20R,2.0X1.7*%
%ADD21O,2.0X1.7*%
%ADD22C,1.5*%
%ADD23R,1.7X2.0*%
%ADD24O,1.7X2.0*%
G04 #@! TA.AperFunction,ViaPad*
%ADD25C,1.016*%
%FSLAX35Y35*%
G04*
G71*
G90*
G75*
G01*
G04 Top*
%LPD*%
X4235000Y3645000D2*
D13*
X3985000D1*
X3780000Y3850000D1*
Y4003000D1*
X2330000Y3730000D2*
D14*
X2190000D1*
X2129000Y3669000D1*
X1824000D1*
X2330000Y3730000D2*
X2490000D1*
X2550000Y3670000D1*
Y3510000D1*
X2620000Y3440000D1*
X2770000D1*
X3526000Y4003000D2*
X3313000D1*
X3220000Y3910000D1*
X2770000D1*
Y3440000D1*
X3250000D1*
X3265000Y3455000D1*
X6140000Y1891000D2*
D13*
X5829000D1*
X5770000Y1950000D1*
Y3610000D1*
X5710000Y3670000D1*
X5521000D1*
X5520000Y3669000D1*
X5210000Y4073000D2*
Y3800000D1*
X5340000Y3670000D1*
X5519000D1*
X5520000Y3669000D1*
X4966000Y2800000D2*
X5130000D1*
X5260000Y2930000D1*
Y3280000D1*
X5395000Y3415000D1*
X5520000D1*
X3550000Y2800000D2*
Y2660000D1*
X3710000Y2500000D1*
X4870000D1*
X4966000Y2596000D1*
Y2800000D1*
X4990000Y1250000D2*
X5140000D1*
X5240000Y1350000D1*
Y2000000D1*
X5385000Y2145000D1*
X5520000D1*
X3550000Y1250000D2*
Y1350000D1*
X3660000Y1460000D1*
X4920000D1*
X4990000Y1390000D1*
Y1250000D1*
X4980000Y1750000D2*
X5090000D1*
X5160000Y1820000D1*
Y2200000D1*
X5359000Y2399000D1*
X5520000D1*
X3550000Y1750000D2*
Y1630000D1*
X3660000Y1520000D1*
X4930000D1*
X4980000Y1570000D1*
Y1750000D1*
X4976000Y2260000D2*
X5110000D1*
X5280000Y2430000D1*
Y2810000D1*
X5377000Y2907000D1*
X5520000D1*
X3550000Y2260000D2*
Y2130000D1*
X3690000Y1990000D1*
X4910000D1*
X4976000Y2056000D1*
Y2260000D1*
X1570000Y2145000D2*
X1805000D1*
X1940000Y2010000D1*
Y1770000D1*
X2020000Y1690000D1*
X2160000D1*
Y1500000D2*
X2780000D1*
X1570000Y2653000D2*
Y2650000D1*
X1860000D1*
X1890000Y2680000D1*
X2160000D1*
Y2490000D2*
X2370000D1*
X2580000Y2280000D1*
X2780000D1*
X1570000Y2907000D2*
X1767000D1*
X1980000Y3120000D1*
X2160000D1*
Y2930000D2*
X2390000D1*
X2550000Y2770000D1*
X2780000D1*
X1570000Y2399000D2*
X1731000D1*
X1960000Y2170000D1*
X2160000D1*
Y1980000D2*
X2340000D1*
X2570000Y1750000D1*
X2780000D1*
X4034000Y4003000D2*
Y3826000D1*
X4110000Y3750000D1*
X4440000D1*
X4650000Y3540000D1*
X6140000Y3669000D2*
X6351000D1*
X6412000Y3730000D1*
Y4132000D1*
X6334000Y4210000D1*
X5120000D1*
X4650000Y3740000D1*
Y3540000D1*
X2340000Y4200000D2*
D14*
X2490000D1*
X2590000Y4100000D1*
X2770000D1*
X3150000D1*
X3270000Y4220000D1*
X4210000D1*
X4288000Y4142000D1*
Y4003000D1*
X2340000Y4200000D2*
Y3920000D1*
X2330000D1*
X1824000D1*
Y3923000D1*
X3735000Y3455000D2*
D13*
X4235000D1*
X3735000D2*
Y3335000D1*
X3660000Y3260000D1*
X3270000D1*
X1570000Y1891000D2*
X1699000D1*
X1810000Y1780000D1*
Y1220000D1*
X1930000Y1100000D1*
X3110000D1*
X3270000Y1260000D1*
Y3260000D1*
X3265000Y3645000D2*
X3735000D1*
D25*
X3270000Y3260000D3*
D15*
X2330000Y3920000D3*
Y3730000D3*
X2770000Y4100000D3*
Y3910000D3*
D16*
X4990000Y1250000D3*
D17*
X3974000D3*
D16*
X4980000Y1750000D3*
D17*
X3964000D3*
D16*
X4976000Y2260000D3*
D17*
X3960000D3*
D16*
X4966000Y2800000D3*
D17*
X3950000D3*
D18*
X2780000Y1500000D3*
D19*
Y1246000D3*
D20*
X1570000Y3923000D3*
D21*
Y3669000D3*
Y3415000D3*
Y3161000D3*
Y2907000D3*
Y2653000D3*
Y2399000D3*
Y2145000D3*
Y1891000D3*
Y1637000D3*
D20*
X6140000Y3923000D3*
D21*
Y3669000D3*
Y3415000D3*
Y3161000D3*
Y2907000D3*
Y2653000D3*
Y2399000D3*
Y2145000D3*
Y1891000D3*
Y1637000D3*
D20*
X1824000Y3923000D3*
D21*
Y3669000D3*
D20*
X5520000Y3923000D3*
D21*
Y3669000D3*
Y3415000D3*
Y3161000D3*
Y2907000D3*
Y2653000D3*
Y2399000D3*
Y2145000D3*
Y1891000D3*
Y1637000D3*
D18*
X2780000Y2280000D3*
D19*
Y2534000D3*
D15*
X4235000Y3455000D3*
Y3645000D3*
X3735000D3*
Y3455000D3*
X3265000D3*
Y3645000D3*
X2160000Y1500000D3*
Y1690000D3*
Y1980000D3*
Y2170000D3*
Y2490000D3*
Y2680000D3*
Y2930000D3*
Y3120000D3*
D18*
X2780000Y2770000D3*
D19*
Y3024000D3*
D22*
X2770000Y3440000D3*
X2340000Y4200000D3*
X4610000Y4110000D3*
X4650000Y3540000D3*
X3550000Y1250000D3*
Y1750000D3*
X4960000Y3110000D3*
X3550000Y2260000D3*
X5150000Y3530000D3*
X3550000Y2800000D3*
X5210000Y4073000D3*
D23*
X3526000Y4003000D3*
D24*
X3780000D3*
D23*
X4034000D3*
D24*
X4288000D3*
D18*
X2780000Y1750000D3*
D19*
Y2004000D3*
M02*
