G04 DipTrace 3.3.0.1*
G04 TopMask.gbr*
%MOMM*%
G04 #@! TF.FileFunction,Soldermask,Top*
G04 #@! TF.Part,Single*
%ADD33O,1.9X2.2*%
%ADD35R,1.9X2.2*%
%ADD37C,1.7*%
%ADD39O,2.2X1.9*%
%ADD41R,2.2X1.9*%
%ADD43R,2.2X1.7*%
%ADD45O,2.2X1.7*%
%ADD47O,2.0X2.2*%
%ADD49R,2.0X2.2*%
%ADD51R,1.7X1.5*%
%FSLAX35Y35*%
G04*
G71*
G90*
G75*
G01*
G04 TopMask*
%LPD*%
D51*
X2330000Y3920000D3*
Y3730000D3*
X2770000Y4100000D3*
Y3910000D3*
D49*
X4990000Y1250000D3*
D47*
X3974000D3*
D49*
X4980000Y1750000D3*
D47*
X3964000D3*
D49*
X4976000Y2260000D3*
D47*
X3960000D3*
D49*
X4966000Y2800000D3*
D47*
X3950000D3*
D45*
X2780000Y1500000D3*
D43*
Y1246000D3*
D41*
X1570000Y3923000D3*
D39*
Y3669000D3*
Y3415000D3*
Y3161000D3*
Y2907000D3*
Y2653000D3*
Y2399000D3*
Y2145000D3*
Y1891000D3*
Y1637000D3*
D41*
X6140000Y3923000D3*
D39*
Y3669000D3*
Y3415000D3*
Y3161000D3*
Y2907000D3*
Y2653000D3*
Y2399000D3*
Y2145000D3*
Y1891000D3*
Y1637000D3*
D41*
X1824000Y3923000D3*
D39*
Y3669000D3*
D41*
X5520000Y3923000D3*
D39*
Y3669000D3*
Y3415000D3*
Y3161000D3*
Y2907000D3*
Y2653000D3*
Y2399000D3*
Y2145000D3*
Y1891000D3*
Y1637000D3*
D45*
X2780000Y2280000D3*
D43*
Y2534000D3*
D51*
X4235000Y3455000D3*
Y3645000D3*
X3735000D3*
Y3455000D3*
X3265000D3*
Y3645000D3*
X2160000Y1500000D3*
Y1690000D3*
Y1980000D3*
Y2170000D3*
Y2490000D3*
Y2680000D3*
Y2930000D3*
Y3120000D3*
D45*
X2780000Y2770000D3*
D43*
Y3024000D3*
D37*
X2770000Y3440000D3*
X2340000Y4200000D3*
X4610000Y4110000D3*
X4650000Y3540000D3*
X3550000Y1250000D3*
Y1750000D3*
X4960000Y3110000D3*
X3550000Y2260000D3*
X5150000Y3530000D3*
X3550000Y2800000D3*
X5210000Y4073000D3*
D35*
X3526000Y4003000D3*
D33*
X3780000D3*
D35*
X4034000D3*
D33*
X4288000D3*
D45*
X2780000Y1750000D3*
D43*
Y2004000D3*
M02*
