G04 DipTrace 3.3.0.1*
G04 TopSilk.gbr*
%MOMM*%
G04 #@! TF.FileFunction,Legend,Top*
G04 #@! TF.Part,Single*
%ADD10C,0.25*%
%ADD12C,0.0762*%
%ADD53C,0.19608*%
%ADD54C,0.23529*%
%FSLAX35Y35*%
G04*
G71*
G90*
G75*
G01*
G04 TopSilk*
%LPD*%
X2265050Y4025067D2*
D10*
X2394950D1*
X2705050Y4205067D2*
X2834950D1*
X4241724Y1110000D2*
Y1390000D1*
X4246866D2*
X4717134D1*
X4650277Y1110000D2*
Y1390000D1*
X4717134Y1110000D2*
Y1390000D1*
X4246866Y1110000D2*
X4717134D1*
X4231724Y1610000D2*
Y1890000D1*
X4236866D2*
X4707134D1*
X4640277Y1610000D2*
Y1890000D1*
X4707134Y1610000D2*
Y1890000D1*
X4236866Y1610000D2*
X4707134D1*
X4227724Y2120000D2*
Y2400000D1*
X4232866D2*
X4703134D1*
X4636277Y2120000D2*
Y2400000D1*
X4703134Y2120000D2*
Y2400000D1*
X4232866Y2120000D2*
X4703134D1*
X4217724Y2660000D2*
Y2940000D1*
X4222866D2*
X4693134D1*
X4626277Y2660000D2*
Y2940000D1*
X4693134Y2660000D2*
Y2940000D1*
X4222866Y2660000D2*
X4693134D1*
X2658093Y1269977D2*
G02X2660967Y1478833I119642J102802D01*
G01*
X2901936Y1269977D2*
G03X2899026Y1478833I-119731J102781D01*
G01*
X2589500Y1563513D2*
X2653011D1*
X2621255Y1531737D2*
Y1595247D1*
X5392888Y4050212D2*
X5647093D1*
Y1510111D1*
X5392888D1*
Y4050212D1*
X2901907Y2510023D2*
G02X2899033Y2301167I-119642J-102802D01*
G01*
X2658064Y2510023D2*
G03X2660974Y2301167I119731J-102781D01*
G01*
X2970500Y2216487D2*
X2906989D1*
X2938745Y2248263D2*
Y2184753D1*
X2901907Y3000023D2*
G02X2899033Y2791167I-119642J-102802D01*
G01*
X2658064Y3000023D2*
G03X2660974Y2791167I119731J-102781D01*
G01*
X2970500Y2706487D2*
X2906989D1*
X2938745Y2738263D2*
Y2674753D1*
X3399093Y3876110D2*
X3891167D1*
Y4129850D1*
X3399093D1*
Y3876110D1*
X3907093D2*
X4399167D1*
Y4129850D1*
X3907093D1*
Y3876110D1*
X2901907Y1980023D2*
G02X2899033Y1771167I-119642J-102802D01*
G01*
X2658064Y1980023D2*
G03X2660974Y1771167I119731J-102781D01*
G01*
X2970500Y1686487D2*
X2906989D1*
X2938745Y1718263D2*
Y1654753D1*
X5532397Y4319208D2*
D12*
X5551447D1*
X5532237Y4315398D2*
X5551447D1*
X5531600Y4311588D2*
X5551447D1*
X5530410Y4307778D2*
X5551447D1*
X5527268Y4303968D2*
X5551447D1*
X5522515Y4300158D2*
X5551447D1*
X5515337Y4296348D2*
X5551447D1*
X5506660Y4292538D2*
X5551447D1*
X5499199Y4288728D2*
X5551447D1*
X5493683Y4284918D2*
X5551447D1*
X5491989Y4281108D2*
X5551447D1*
X5491105Y4277298D2*
X5551447D1*
X5490709Y4273488D2*
X5551447D1*
X5528587Y4269678D2*
X5551447D1*
X5528587Y4265868D2*
X5551447D1*
X5528587Y4262058D2*
X5551447D1*
X5528587Y4258248D2*
X5551447D1*
X5528587Y4254438D2*
X5551447D1*
X5528587Y4250628D2*
X5551447D1*
X5528587Y4246818D2*
X5551447D1*
X5528587Y4243008D2*
X5551447D1*
X5528587Y4239198D2*
X5551447D1*
X5528587Y4235388D2*
X5551447D1*
X5528587Y4231578D2*
X5551447D1*
X5528587Y4227768D2*
X5551447D1*
X5528587Y4223958D2*
X5551447D1*
X5528587Y4220148D2*
X5551447D1*
X5528587Y4216338D2*
X5551447D1*
X5528587Y4212528D2*
X5551447D1*
X5528587Y4208718D2*
X5551447D1*
X5528587Y4204908D2*
X5551447D1*
X5528587Y4201098D2*
X5551447D1*
X5528587Y4197288D2*
X5551447D1*
X5528587Y4193478D2*
X5551447D1*
X5528587Y4189668D2*
X5551447D1*
X5528587Y4185858D2*
X5551447D1*
X5528587Y4182048D2*
X5551447D1*
X5528587Y4178238D2*
X5551447D1*
X5528587Y4174428D2*
X5551447D1*
X5528587Y4170618D2*
X5551447D1*
X5528587Y4166808D2*
X5551447D1*
X5528587Y4162998D2*
X5551447D1*
X5528587Y4159188D2*
X5551447D1*
X5528587Y4155378D2*
X5551447D1*
X5528587Y4151568D2*
X5551447D1*
X5528587Y4147758D2*
X5551447D1*
X5528587Y4143948D2*
X5551447D1*
X5528587Y4140138D2*
X5551447D1*
X5528587Y4136328D2*
X5551447D1*
X5528587Y4132518D2*
X5551447D1*
X5490487Y4128708D2*
X5589547D1*
X5490487Y4124898D2*
X5589547D1*
X5490487Y4121088D2*
X5589547D1*
X5490487Y4117278D2*
X5589547D1*
X5490487Y4113468D2*
X5589547D1*
X5490487Y4109658D2*
X5589547D1*
X5585927Y1466048D2*
X5616407D1*
X5437337Y1462238D2*
X5456387D1*
X5577297D2*
X5625037D1*
X5437177Y1458428D2*
X5456387D1*
X5570164D2*
X5632169D1*
X5436540Y1454618D2*
X5456387D1*
X5564525D2*
X5637794D1*
X5435350Y1450808D2*
X5456387D1*
X5559865D2*
X5642334D1*
X5432208Y1446998D2*
X5456387D1*
X5555822D2*
X5646011D1*
X5427455Y1443188D2*
X5456387D1*
X5552368D2*
X5586690D1*
X5612292D2*
X5648919D1*
X5420277Y1439378D2*
X5456387D1*
X5549566D2*
X5580786D1*
X5618771D2*
X5651305D1*
X5411600Y1435568D2*
X5456387D1*
X5547333D2*
X5576201D1*
X5623796D2*
X5653408D1*
X5404139Y1431758D2*
X5456387D1*
X5545594D2*
X5572833D1*
X5627415D2*
X5655275D1*
X5398623Y1427948D2*
X5456387D1*
X5544174D2*
X5570352D1*
X5630121D2*
X5656848D1*
X5396929Y1424138D2*
X5456387D1*
X5542800D2*
X5568513D1*
X5632250D2*
X5658200D1*
X5396045Y1420328D2*
X5456387D1*
X5541607D2*
X5567054D1*
X5633927D2*
X5659548D1*
X5395649Y1416518D2*
X5456387D1*
X5540727D2*
X5565667D1*
X5635319D2*
X5660717D1*
X5433527Y1412708D2*
X5456387D1*
X5539857D2*
X5564484D1*
X5636680D2*
X5661474D1*
X5433527Y1408898D2*
X5456387D1*
X5538772D2*
X5563737D1*
X5637854D2*
X5661991D1*
X5433527Y1405088D2*
X5456387D1*
X5537725D2*
X5563337D1*
X5638598D2*
X5662649D1*
X5433527Y1401278D2*
X5456387D1*
X5537033D2*
X5563030D1*
X5638982D2*
X5663632D1*
X5433527Y1397468D2*
X5456387D1*
X5536670D2*
X5562474D1*
X5639154D2*
X5664636D1*
X5433527Y1393658D2*
X5456387D1*
X5536505D2*
X5561535D1*
X5639225D2*
X5665310D1*
X5433527Y1389848D2*
X5456387D1*
X5536422D2*
X5560548D1*
X5639252D2*
X5665667D1*
X5433527Y1386038D2*
X5456387D1*
X5536262D2*
X5559880D1*
X5639262D2*
X5665829D1*
X5433527Y1382228D2*
X5456387D1*
X5535767D2*
X5559526D1*
X5639280D2*
X5665896D1*
X5433527Y1378418D2*
X5456387D1*
X5534851D2*
X5559364D1*
X5639415D2*
X5665922D1*
X5433527Y1374608D2*
X5456387D1*
X5533873D2*
X5559297D1*
X5639901D2*
X5665932D1*
X5433527Y1370798D2*
X5456387D1*
X5533209D2*
X5559271D1*
X5640813D2*
X5665935D1*
X5433527Y1366988D2*
X5456387D1*
X5532855D2*
X5559262D1*
X5641790D2*
X5665936D1*
X5433527Y1363178D2*
X5456387D1*
X5532694D2*
X5559258D1*
X5642455D2*
X5665936D1*
X5433527Y1359368D2*
X5456387D1*
X5532627D2*
X5559257D1*
X5642793D2*
X5665937D1*
X5433527Y1355558D2*
X5456387D1*
X5532601D2*
X5559257D1*
X5642821D2*
X5665937D1*
X5433527Y1351748D2*
X5456387D1*
X5532606D2*
X5559257D1*
X5642402D2*
X5665937D1*
X5433527Y1347938D2*
X5456387D1*
X5532737D2*
X5559257D1*
X5641515D2*
X5665937D1*
X5433527Y1344128D2*
X5456387D1*
X5533222D2*
X5559257D1*
X5640548D2*
X5665937D1*
X5433527Y1340318D2*
X5456387D1*
X5534134D2*
X5559257D1*
X5639887D2*
X5665937D1*
X5433527Y1336508D2*
X5456387D1*
X5535110D2*
X5559257D1*
X5639535D2*
X5665937D1*
X5433527Y1332698D2*
X5456387D1*
X5535775D2*
X5559272D1*
X5639373D2*
X5665937D1*
X5433527Y1328888D2*
X5456387D1*
X5536128D2*
X5559405D1*
X5639307D2*
X5665922D1*
X5433527Y1325078D2*
X5456387D1*
X5536290D2*
X5559891D1*
X5639281D2*
X5665788D1*
X5433527Y1321268D2*
X5456387D1*
X5536372D2*
X5560804D1*
X5639272D2*
X5665302D1*
X5433527Y1317458D2*
X5456387D1*
X5536531D2*
X5561780D1*
X5639253D2*
X5664390D1*
X5433527Y1313648D2*
X5456387D1*
X5537026D2*
X5562460D1*
X5639118D2*
X5663413D1*
X5433527Y1309838D2*
X5456387D1*
X5537942D2*
X5562947D1*
X5638632D2*
X5662734D1*
X5433527Y1306028D2*
X5456387D1*
X5538935D2*
X5563594D1*
X5637705D2*
X5662246D1*
X5433527Y1302218D2*
X5456387D1*
X5539734D2*
X5564588D1*
X5636594D2*
X5661599D1*
X5433527Y1298408D2*
X5456387D1*
X5540573D2*
X5565725D1*
X5635429D2*
X5660605D1*
X5433527Y1294598D2*
X5456387D1*
X5541662D2*
X5566899D1*
X5634029D2*
X5659468D1*
X5433527Y1290788D2*
X5456387D1*
X5542839D2*
X5568317D1*
X5632376D2*
X5658294D1*
X5433527Y1286978D2*
X5456387D1*
X5544030D2*
X5570106D1*
X5630434D2*
X5656891D1*
X5433527Y1283168D2*
X5456387D1*
X5545454D2*
X5572623D1*
X5627720D2*
X5655251D1*
X5433527Y1279358D2*
X5456387D1*
X5547230D2*
X5575973D1*
X5624081D2*
X5653458D1*
X5433527Y1275548D2*
X5456387D1*
X5549509D2*
X5585190D1*
X5614214D2*
X5651468D1*
X5395427Y1271738D2*
X5494487D1*
X5552412D2*
X5599244D1*
X5599668D2*
X5649085D1*
X5395427Y1267928D2*
X5494487D1*
X5555787D2*
X5646123D1*
X5395427Y1264118D2*
X5494487D1*
X5559562D2*
X5642583D1*
X5395427Y1260308D2*
X5494487D1*
X5564071D2*
X5638186D1*
X5395427Y1256498D2*
X5494487D1*
X5569973D2*
X5632332D1*
X5395427Y1252688D2*
X5494487D1*
X5577510D2*
X5624813D1*
X5585927Y1248878D2*
X5616407D1*
X5532397Y4319208D2*
X5532237Y4315398D1*
X5531600Y4311588D1*
X5530410Y4307778D1*
X5527268Y4303968D1*
X5522515Y4300158D1*
X5515337Y4296348D1*
X5506660Y4292538D1*
X5499199Y4288728D1*
X5493683Y4284918D1*
X5491989Y4281108D1*
X5491105Y4277298D1*
X5490709Y4273488D1*
X5490487Y4269678D1*
X5528587D1*
Y4265868D1*
Y4262058D1*
Y4258248D1*
Y4254438D1*
Y4250628D1*
Y4246818D1*
Y4243008D1*
Y4239198D1*
Y4235388D1*
Y4231578D1*
Y4227768D1*
Y4223958D1*
Y4220148D1*
Y4216338D1*
Y4212528D1*
Y4208718D1*
Y4204908D1*
Y4201098D1*
Y4197288D1*
Y4193478D1*
Y4189668D1*
Y4185858D1*
Y4182048D1*
Y4178238D1*
Y4174428D1*
Y4170618D1*
Y4166808D1*
Y4162998D1*
Y4159188D1*
Y4155378D1*
Y4151568D1*
Y4147758D1*
Y4143948D1*
Y4140138D1*
Y4136328D1*
Y4132518D1*
Y4128708D1*
X5490487D1*
Y4124898D1*
Y4121088D1*
Y4117278D1*
Y4113468D1*
Y4109658D1*
X5551447Y4319208D2*
Y4315398D1*
Y4311588D1*
Y4307778D1*
Y4303968D1*
Y4300158D1*
Y4296348D1*
Y4292538D1*
Y4288728D1*
Y4284918D1*
Y4281108D1*
Y4277298D1*
Y4273488D1*
Y4269678D1*
Y4265868D1*
Y4262058D1*
Y4258248D1*
Y4254438D1*
Y4250628D1*
Y4246818D1*
Y4243008D1*
Y4239198D1*
Y4235388D1*
Y4231578D1*
Y4227768D1*
Y4223958D1*
Y4220148D1*
Y4216338D1*
Y4212528D1*
Y4208718D1*
Y4204908D1*
Y4201098D1*
Y4197288D1*
Y4193478D1*
Y4189668D1*
Y4185858D1*
Y4182048D1*
Y4178238D1*
Y4174428D1*
Y4170618D1*
Y4166808D1*
Y4162998D1*
Y4159188D1*
Y4155378D1*
Y4151568D1*
Y4147758D1*
Y4143948D1*
Y4140138D1*
Y4136328D1*
Y4132518D1*
Y4128708D1*
X5589547D1*
Y4124898D1*
Y4121088D1*
Y4117278D1*
Y4113468D1*
Y4109658D1*
X5585927Y1466048D2*
X5577297Y1462238D1*
X5570164Y1458428D1*
X5564525Y1454618D1*
X5559865Y1450808D1*
X5555822Y1446998D1*
X5552368Y1443188D1*
X5549566Y1439378D1*
X5547333Y1435568D1*
X5545594Y1431758D1*
X5544174Y1427948D1*
X5542800Y1424138D1*
X5541607Y1420328D1*
X5540727Y1416518D1*
X5539857Y1412708D1*
X5538772Y1408898D1*
X5537725Y1405088D1*
X5537033Y1401278D1*
X5536670Y1397468D1*
X5536505Y1393658D1*
X5536422Y1389848D1*
X5536262Y1386038D1*
X5535767Y1382228D1*
X5534851Y1378418D1*
X5533873Y1374608D1*
X5533209Y1370798D1*
X5532855Y1366988D1*
X5532694Y1363178D1*
X5532627Y1359368D1*
X5532601Y1355558D1*
X5532606Y1351748D1*
X5532737Y1347938D1*
X5533222Y1344128D1*
X5534134Y1340318D1*
X5535110Y1336508D1*
X5535775Y1332698D1*
X5536128Y1328888D1*
X5536290Y1325078D1*
X5536372Y1321268D1*
X5536531Y1317458D1*
X5537026Y1313648D1*
X5537942Y1309838D1*
X5538935Y1306028D1*
X5539734Y1302218D1*
X5540573Y1298408D1*
X5541662Y1294598D1*
X5542839Y1290788D1*
X5544030Y1286978D1*
X5545454Y1283168D1*
X5547230Y1279358D1*
X5549509Y1275548D1*
X5552412Y1271738D1*
X5555787Y1267928D1*
X5559562Y1264118D1*
X5564071Y1260308D1*
X5569973Y1256498D1*
X5577510Y1252688D1*
X5585927Y1248878D1*
X5616407Y1466048D2*
X5625037Y1462238D1*
X5632169Y1458428D1*
X5637794Y1454618D1*
X5642334Y1450808D1*
X5646011Y1446998D1*
X5648919Y1443188D1*
X5651305Y1439378D1*
X5653408Y1435568D1*
X5655275Y1431758D1*
X5656848Y1427948D1*
X5658200Y1424138D1*
X5659548Y1420328D1*
X5660717Y1416518D1*
X5661474Y1412708D1*
X5661991Y1408898D1*
X5662649Y1405088D1*
X5663632Y1401278D1*
X5664636Y1397468D1*
X5665310Y1393658D1*
X5665667Y1389848D1*
X5665829Y1386038D1*
X5665896Y1382228D1*
X5665922Y1378418D1*
X5665932Y1374608D1*
X5665935Y1370798D1*
X5665936Y1366988D1*
Y1363178D1*
X5665937Y1359368D1*
Y1355558D1*
Y1351748D1*
Y1347938D1*
Y1344128D1*
Y1340318D1*
Y1336508D1*
Y1332698D1*
X5665922Y1328888D1*
X5665788Y1325078D1*
X5665302Y1321268D1*
X5664390Y1317458D1*
X5663413Y1313648D1*
X5662734Y1309838D1*
X5662246Y1306028D1*
X5661599Y1302218D1*
X5660605Y1298408D1*
X5659468Y1294598D1*
X5658294Y1290788D1*
X5656891Y1286978D1*
X5655251Y1283168D1*
X5653458Y1279358D1*
X5651468Y1275548D1*
X5649085Y1271738D1*
X5646123Y1267928D1*
X5642583Y1264118D1*
X5638186Y1260308D1*
X5632332Y1256498D1*
X5624813Y1252688D1*
X5616407Y1248878D1*
X5437337Y1462238D2*
X5437177Y1458428D1*
X5436540Y1454618D1*
X5435350Y1450808D1*
X5432208Y1446998D1*
X5427455Y1443188D1*
X5420277Y1439378D1*
X5411600Y1435568D1*
X5404139Y1431758D1*
X5398623Y1427948D1*
X5396929Y1424138D1*
X5396045Y1420328D1*
X5395649Y1416518D1*
X5395427Y1412708D1*
X5433527D1*
Y1408898D1*
Y1405088D1*
Y1401278D1*
Y1397468D1*
Y1393658D1*
Y1389848D1*
Y1386038D1*
Y1382228D1*
Y1378418D1*
Y1374608D1*
Y1370798D1*
Y1366988D1*
Y1363178D1*
Y1359368D1*
Y1355558D1*
Y1351748D1*
Y1347938D1*
Y1344128D1*
Y1340318D1*
Y1336508D1*
Y1332698D1*
Y1328888D1*
Y1325078D1*
Y1321268D1*
Y1317458D1*
Y1313648D1*
Y1309838D1*
Y1306028D1*
Y1302218D1*
Y1298408D1*
Y1294598D1*
Y1290788D1*
Y1286978D1*
Y1283168D1*
Y1279358D1*
Y1275548D1*
Y1271738D1*
X5395427D1*
Y1267928D1*
Y1264118D1*
Y1260308D1*
Y1256498D1*
Y1252688D1*
X5456387Y1462238D2*
Y1458428D1*
Y1454618D1*
Y1450808D1*
Y1446998D1*
Y1443188D1*
Y1439378D1*
Y1435568D1*
Y1431758D1*
Y1427948D1*
Y1424138D1*
Y1420328D1*
Y1416518D1*
Y1412708D1*
Y1408898D1*
Y1405088D1*
Y1401278D1*
Y1397468D1*
Y1393658D1*
Y1389848D1*
Y1386038D1*
Y1382228D1*
Y1378418D1*
Y1374608D1*
Y1370798D1*
Y1366988D1*
Y1363178D1*
Y1359368D1*
Y1355558D1*
Y1351748D1*
Y1347938D1*
Y1344128D1*
Y1340318D1*
Y1336508D1*
Y1332698D1*
Y1328888D1*
Y1325078D1*
Y1321268D1*
Y1317458D1*
Y1313648D1*
Y1309838D1*
Y1306028D1*
Y1302218D1*
Y1298408D1*
Y1294598D1*
Y1290788D1*
Y1286978D1*
Y1283168D1*
Y1279358D1*
Y1275548D1*
Y1271738D1*
X5494487D1*
Y1267928D1*
Y1264118D1*
Y1260308D1*
Y1256498D1*
Y1252688D1*
X5593547Y1446998D2*
X5586690Y1443188D1*
X5580786Y1439378D1*
X5576201Y1435568D1*
X5572833Y1431758D1*
X5570352Y1427948D1*
X5568513Y1424138D1*
X5567054Y1420328D1*
X5565667Y1416518D1*
X5564484Y1412708D1*
X5563737Y1408898D1*
X5563337Y1405088D1*
X5563030Y1401278D1*
X5562474Y1397468D1*
X5561535Y1393658D1*
X5560548Y1389848D1*
X5559880Y1386038D1*
X5559526Y1382228D1*
X5559364Y1378418D1*
X5559297Y1374608D1*
X5559271Y1370798D1*
X5559262Y1366988D1*
X5559258Y1363178D1*
X5559257Y1359368D1*
Y1355558D1*
Y1351748D1*
Y1347938D1*
Y1344128D1*
Y1340318D1*
Y1336508D1*
X5559272Y1332698D1*
X5559405Y1328888D1*
X5559891Y1325078D1*
X5560804Y1321268D1*
X5561780Y1317458D1*
X5562460Y1313648D1*
X5562947Y1309838D1*
X5563594Y1306028D1*
X5564588Y1302218D1*
X5565725Y1298408D1*
X5566899Y1294598D1*
X5568317Y1290788D1*
X5570106Y1286978D1*
X5572623Y1283168D1*
X5575973Y1279358D1*
X5585190Y1275548D1*
X5599244Y1271738D1*
X5616407Y1267928D1*
X5604977Y1446998D2*
X5612292Y1443188D1*
X5618771Y1439378D1*
X5623796Y1435568D1*
X5627415Y1431758D1*
X5630121Y1427948D1*
X5632250Y1424138D1*
X5633927Y1420328D1*
X5635319Y1416518D1*
X5636680Y1412708D1*
X5637854Y1408898D1*
X5638598Y1405088D1*
X5638982Y1401278D1*
X5639154Y1397468D1*
X5639225Y1393658D1*
X5639252Y1389848D1*
X5639262Y1386038D1*
X5639280Y1382228D1*
X5639415Y1378418D1*
X5639901Y1374608D1*
X5640813Y1370798D1*
X5641790Y1366988D1*
X5642455Y1363178D1*
X5642793Y1359368D1*
X5642821Y1355558D1*
X5642402Y1351748D1*
X5641515Y1347938D1*
X5640548Y1344128D1*
X5639887Y1340318D1*
X5639535Y1336508D1*
X5639373Y1332698D1*
X5639307Y1328888D1*
X5639281Y1325078D1*
X5639272Y1321268D1*
X5639253Y1317458D1*
X5639118Y1313648D1*
X5638632Y1309838D1*
X5637705Y1306028D1*
X5636594Y1302218D1*
X5635429Y1298408D1*
X5634029Y1294598D1*
X5632376Y1290788D1*
X5630434Y1286978D1*
X5627720Y1283168D1*
X5624081Y1279358D1*
X5614214Y1275548D1*
X5599668Y1271738D1*
X5582117Y1267928D1*
X2099337Y3855749D2*
D53*
X2087264Y3849712D1*
X2075050Y3837499D1*
X2069013Y3825426D1*
Y3801139D1*
X2075050Y3788926D1*
X2087263Y3776853D1*
X2099336Y3770676D1*
X2117586Y3764639D1*
X2148050D1*
X2166160Y3770676D1*
X2178373Y3776853D1*
X2190446Y3788926D1*
X2196623Y3801139D1*
Y3825426D1*
X2190446Y3837499D1*
X2178373Y3849712D1*
X2166160Y3855749D1*
X2093440Y3894964D2*
X2087264Y3907178D1*
X2069154Y3925428D1*
X2196623D1*
X2539337Y4008444D2*
X2527264Y4002407D1*
X2515050Y3990194D1*
X2509013Y3978121D1*
Y3953834D1*
X2515050Y3941621D1*
X2527263Y3929548D1*
X2539336Y3923371D1*
X2557586Y3917334D1*
X2588050D1*
X2606160Y3923371D1*
X2618373Y3929548D1*
X2630446Y3941621D1*
X2636623Y3953834D1*
Y3978121D1*
X2630446Y3990194D1*
X2618373Y4002407D1*
X2606160Y4008444D1*
X2539477Y4053837D2*
X2533440D1*
X2521227Y4059873D1*
X2515190Y4065910D1*
X2509154Y4078123D1*
Y4102410D1*
X2515190Y4114483D1*
X2521227Y4120519D1*
X2533440Y4126696D1*
X2545514D1*
X2557727Y4120519D1*
X2575837Y4108446D1*
X2636623Y4047659D1*
Y4132733D1*
X4404624Y1575987D2*
Y1448377D1*
X4447160D1*
X4465410Y1454554D1*
X4477624Y1466627D1*
X4483660Y1478840D1*
X4489697Y1496950D1*
Y1527414D1*
X4483660Y1545664D1*
X4477624Y1557737D1*
X4465410Y1569950D1*
X4447160Y1575987D1*
X4404624D1*
X4528913Y1551560D2*
X4541126Y1557737D1*
X4559376Y1575846D1*
Y1448377D1*
X4367319Y2075987D2*
Y1948377D1*
X4409856D1*
X4428106Y1954554D1*
X4440319Y1966627D1*
X4446356Y1978840D1*
X4452392Y1996950D1*
Y2027414D1*
X4446356Y2045664D1*
X4440319Y2057737D1*
X4428106Y2069950D1*
X4409856Y2075987D1*
X4367319D1*
X4497785Y2045523D2*
Y2051560D1*
X4503821Y2063773D1*
X4509858Y2069810D1*
X4522071Y2075846D1*
X4546358D1*
X4558431Y2069810D1*
X4564467Y2063773D1*
X4570644Y2051560D1*
Y2039487D1*
X4564467Y2027273D1*
X4552394Y2009164D1*
X4491608Y1948377D1*
X4576681D1*
X4363319Y2585987D2*
Y2458377D1*
X4405856D1*
X4424106Y2464554D1*
X4436319Y2476627D1*
X4442356Y2488840D1*
X4448392Y2506950D1*
Y2537414D1*
X4442356Y2555664D1*
X4436319Y2567737D1*
X4424106Y2579950D1*
X4405856Y2585987D1*
X4363319D1*
X4499821Y2585846D2*
X4566504D1*
X4530144Y2537273D1*
X4548394D1*
X4560467Y2531237D1*
X4566504Y2525200D1*
X4572681Y2506950D1*
Y2494877D1*
X4566504Y2476627D1*
X4554431Y2464414D1*
X4536181Y2458377D1*
X4517931D1*
X4499821Y2464414D1*
X4493785Y2470590D1*
X4487608Y2482664D1*
X4350301Y3125987D2*
Y2998377D1*
X4392837D1*
X4411087Y3004554D1*
X4423301Y3016627D1*
X4429337Y3028840D1*
X4435374Y3046950D1*
Y3077414D1*
X4429337Y3095664D1*
X4423301Y3107737D1*
X4411087Y3119950D1*
X4392837Y3125987D1*
X4350301D1*
X4535376Y2998377D2*
Y3125846D1*
X4474590Y3040914D1*
X4565699D1*
X2433837Y1304390D2*
X2421763Y1298353D1*
X2409550Y1286140D1*
X2403513Y1274067D1*
Y1249780D1*
X2409550Y1237567D1*
X2421763Y1225494D1*
X2433836Y1219317D1*
X2452086Y1213280D1*
X2482550D1*
X2500659Y1219317D1*
X2512873Y1225494D1*
X2524946Y1237567D1*
X2531123Y1249780D1*
Y1274066D1*
X2524946Y1286139D1*
X2512873Y1298353D1*
X2500660Y1304390D1*
X2482550D1*
Y1274067D1*
X2464300Y1343605D2*
Y1398215D1*
X2458123Y1416465D1*
X2452087Y1422642D1*
X2440013Y1428678D1*
X2427800D1*
X2415727Y1422642D1*
X2409550Y1416465D1*
X2403513Y1398215D1*
Y1343605D1*
X2531123D1*
X2464300Y1386142D2*
X2531123Y1428678D1*
X2403513Y1552967D2*
X2531123D1*
X2403513Y1467894D1*
X2531123D1*
X5175150Y2430060D2*
X5302760D1*
X5175150Y2515133D2*
X5260223Y2430060D1*
X5229760Y2460383D2*
X5302760Y2515133D1*
X5175150Y2633245D2*
Y2554349D1*
X5302760D1*
Y2633245D1*
X5235937Y2554349D2*
Y2602922D1*
X5175150Y2672461D2*
X5235937Y2721034D1*
X5302760D1*
X5175150Y2769607D2*
X5235937Y2721034D1*
X5241973Y2808823D2*
Y2863573D1*
X5235937Y2881682D1*
X5229760Y2887859D1*
X5217687Y2893896D1*
X5199437D1*
X5187364Y2887859D1*
X5181187Y2881682D1*
X5175150Y2863573D1*
Y2808823D1*
X5302760D1*
Y3030398D2*
X5175150Y2981684D1*
X5302760Y2933111D1*
X5260223Y2951361D2*
Y3012148D1*
X5175150Y3069614D2*
X5302760D1*
Y3112150D1*
X5296583Y3130400D1*
X5284510Y3142614D1*
X5272296Y3148650D1*
X5254187Y3154687D1*
X5223723D1*
X5205473Y3148650D1*
X5193400Y3142614D1*
X5181187Y3130400D1*
X5175150Y3112150D1*
Y3069614D1*
X2434013Y2257497D2*
X2440050Y2245283D1*
X2452263Y2233210D1*
X2464336Y2227033D1*
X2482586Y2220997D1*
X2513050D1*
X2531159Y2227033D1*
X2543373Y2233210D1*
X2555446Y2245283D1*
X2561623Y2257497D1*
Y2281783D1*
X2555446Y2293856D1*
X2543373Y2306070D1*
X2531160Y2312106D1*
X2513050Y2318143D1*
X2482587D1*
X2464337Y2312106D1*
X2452263Y2306070D1*
X2440050Y2293856D1*
X2434013Y2281783D1*
Y2257497D1*
X2494800Y2357359D2*
Y2411968D1*
X2488623Y2430218D1*
X2482587Y2436395D1*
X2470513Y2442432D1*
X2458300D1*
X2446227Y2436395D1*
X2440050Y2430218D1*
X2434013Y2411968D1*
Y2357359D1*
X2561623Y2357358D1*
X2494800Y2399895D2*
X2561623Y2442431D1*
X2464336Y2572757D2*
X2452263Y2566720D1*
X2440050Y2554507D1*
X2434013Y2542434D1*
Y2518147D1*
X2440050Y2505934D1*
X2452263Y2493861D1*
X2464337Y2487684D1*
X2482587Y2481647D1*
X2513050D1*
X2531160Y2487684D1*
X2543373Y2493861D1*
X2555446Y2505934D1*
X2561623Y2518147D1*
Y2542434D1*
X2555446Y2554507D1*
X2543373Y2566720D1*
X2531160Y2572757D1*
X2513050D1*
Y2542434D1*
X4034800Y3472624D2*
Y3527234D1*
X4028623Y3545484D1*
X4022587Y3551661D1*
X4010514Y3557697D1*
X3998300D1*
X3986227Y3551661D1*
X3980050Y3545484D1*
X3974013Y3527234D1*
Y3472624D1*
X4101623D1*
X4034800Y3515161D2*
X4101623Y3557697D1*
X3998440Y3596913D2*
X3992264Y3609126D1*
X3974154Y3627376D1*
X4101623D1*
X3534800Y3445319D2*
Y3499929D1*
X3528623Y3518179D1*
X3522587Y3524356D1*
X3510514Y3530392D1*
X3498300D1*
X3486227Y3524356D1*
X3480050Y3518179D1*
X3474013Y3499929D1*
Y3445319D1*
X3601623D1*
X3534800Y3487856D2*
X3601623Y3530392D1*
X3504477Y3575785D2*
X3498440D1*
X3486227Y3581822D1*
X3480190Y3587858D1*
X3474154Y3600071D1*
Y3624358D1*
X3480190Y3636431D1*
X3486227Y3642468D1*
X3498440Y3648645D1*
X3510514Y3648644D1*
X3522727Y3642468D1*
X3540837Y3630394D1*
X3601623Y3569608D1*
Y3654681D1*
X3064800Y3445319D2*
Y3499929D1*
X3058623Y3518179D1*
X3052587Y3524356D1*
X3040514Y3530392D1*
X3028300D1*
X3016227Y3524356D1*
X3010050Y3518179D1*
X3004013Y3499929D1*
Y3445319D1*
X3131623D1*
X3064800Y3487856D2*
X3131623Y3530392D1*
X3004154Y3581822D2*
Y3648504D1*
X3052727Y3612145D1*
Y3630394D1*
X3058764Y3642468D1*
X3064800Y3648504D1*
X3083050Y3654681D1*
X3095123D1*
X3113373Y3648504D1*
X3125587Y3636431D1*
X3131623Y3618181D1*
Y3599931D1*
X3125587Y3581821D1*
X3119410Y3575785D1*
X3107337Y3569608D1*
X1959800Y1490390D2*
Y1544999D1*
X1953623Y1563249D1*
X1947587Y1569426D1*
X1935514Y1575463D1*
X1923300D1*
X1911227Y1569426D1*
X1905050Y1563249D1*
X1899013Y1544999D1*
Y1490390D1*
X2026623D1*
X1959800Y1532926D2*
X2026623Y1575462D1*
X1899154Y1645001D2*
X1905190Y1626892D1*
X1917264Y1620715D1*
X1929477D1*
X1941550Y1626892D1*
X1947727Y1638965D1*
X1953764Y1663251D1*
X1959800Y1681501D1*
X1972014Y1693574D1*
X1984087Y1699611D1*
X2002337D1*
X2014410Y1693574D1*
X2020587Y1687538D1*
X2026623Y1669288D1*
Y1645001D1*
X2020587Y1626892D1*
X2014410Y1620715D1*
X2002337Y1614678D1*
X1984087D1*
X1972014Y1620715D1*
X1959800Y1632928D1*
X1953764Y1651038D1*
X1947727Y1675324D1*
X1941550Y1687538D1*
X1929477Y1693574D1*
X1917264D1*
X1905190Y1687538D1*
X1899154Y1669288D1*
Y1645001D1*
X1959800Y1973338D2*
Y2027947D1*
X1953623Y2046197D1*
X1947587Y2052374D1*
X1935514Y2058411D1*
X1923300D1*
X1911227Y2052374D1*
X1905050Y2046197D1*
X1899013Y2027947D1*
Y1973338D1*
X2026623D1*
X1959800Y2015874D2*
X2026623Y2058411D1*
X1941550Y2176663D2*
X1959800Y2170486D1*
X1972014Y2158413D1*
X1978050Y2140163D1*
Y2134126D1*
X1972014Y2115876D1*
X1959800Y2103803D1*
X1941550Y2097626D1*
X1935514D1*
X1917264Y2103803D1*
X1905190Y2115876D1*
X1899154Y2134126D1*
Y2140163D1*
X1905190Y2158413D1*
X1917264Y2170486D1*
X1941550Y2176663D1*
X1972014D1*
X2002337Y2170486D1*
X2020587Y2158413D1*
X2026623Y2140163D1*
Y2128090D1*
X2020587Y2109840D1*
X2008373Y2103803D1*
X1959800Y2445480D2*
Y2500089D1*
X1953623Y2518339D1*
X1947587Y2524516D1*
X1935514Y2530553D1*
X1923300D1*
X1911227Y2524516D1*
X1905050Y2518339D1*
X1899013Y2500089D1*
Y2445480D1*
X2026623D1*
X1959800Y2488016D2*
X2026623Y2530553D1*
X1923440Y2569768D2*
X1917264Y2581982D1*
X1899154Y2600232D1*
X2026623D1*
X1899154Y2675948D2*
X1905190Y2657698D1*
X1923440Y2645484D1*
X1953764Y2639448D1*
X1972014Y2639447D1*
X2002337Y2645484D1*
X2020587Y2657697D1*
X2026623Y2675947D1*
Y2688021D1*
X2020587Y2706271D1*
X2002337Y2718344D1*
X1972013Y2724521D1*
X1953764D1*
X1923440Y2718344D1*
X1905190Y2706271D1*
X1899154Y2688021D1*
Y2675948D1*
X1923440Y2718344D2*
X2002337Y2645484D1*
X1959800Y2912785D2*
Y2967394D1*
X1953623Y2985644D1*
X1947587Y2991821D1*
X1935514Y2997858D1*
X1923300D1*
X1911227Y2991821D1*
X1905050Y2985644D1*
X1899013Y2967394D1*
Y2912785D1*
X2026623D1*
X1959800Y2955321D2*
X2026623Y2997857D1*
X1923440Y3037073D2*
X1917264Y3049287D1*
X1899154Y3067537D1*
X2026623D1*
X1923440Y3106752D2*
X1917264Y3118966D1*
X1899154Y3137216D1*
X2026623D1*
X2494800Y2723140D2*
Y2777750D1*
X2488623Y2796000D1*
X2482587Y2802177D1*
X2470513Y2808213D1*
X2458300D1*
X2446227Y2802177D1*
X2440050Y2796000D1*
X2434013Y2777750D1*
Y2723140D1*
X2561623D1*
X2494800Y2765677D2*
X2561623Y2808213D1*
X2434013Y2926325D2*
Y2847429D1*
X2561623D1*
Y2926325D1*
X2494800Y2847429D2*
Y2896002D1*
X2434013Y2965541D2*
X2561623Y2965540D1*
Y3008077D1*
X2555446Y3026327D1*
X2543373Y3038540D1*
X2531160Y3044577D1*
X2513050Y3050614D1*
X2482586D1*
X2464337Y3044577D1*
X2452263Y3038540D1*
X2440050Y3026327D1*
X2434013Y3008077D1*
Y2965541D1*
X2663016Y3700987D2*
Y3573377D1*
X2620480Y3700987D2*
X2705553D1*
X2744768Y3634164D2*
X2799518D1*
X2817628Y3640200D1*
X2823805Y3646377D1*
X2829841Y3658450D1*
Y3676700D1*
X2823805Y3688773D1*
X2817628Y3694950D1*
X2799518Y3700987D1*
X2744768D1*
Y3573377D1*
X2869057Y3676560D2*
X2881270Y3682737D1*
X2899520Y3700846D1*
Y3573377D1*
X1925711Y4270987D2*
Y4143377D1*
X1883175Y4270987D2*
X1968248D1*
X2007463Y4204164D2*
X2062213D1*
X2080323Y4210200D1*
X2086500Y4216377D1*
X2092537Y4228450D1*
Y4246700D1*
X2086500Y4258773D1*
X2080323Y4264950D1*
X2062213Y4270987D1*
X2007463D1*
Y4143377D1*
X2137929Y4240523D2*
Y4246560D1*
X2143966Y4258773D1*
X2150002Y4264810D1*
X2162216Y4270846D1*
X2186502D1*
X2198575Y4264810D1*
X2204612Y4258773D1*
X2210789Y4246560D1*
Y4234487D1*
X2204612Y4222273D1*
X2192539Y4204164D1*
X2131752Y4143377D1*
X2216825D1*
X4485711Y4370987D2*
Y4243377D1*
X4443175Y4370987D2*
X4528248D1*
X4567463Y4304164D2*
X4622213D1*
X4640323Y4310200D1*
X4646500Y4316377D1*
X4652537Y4328450D1*
Y4346700D1*
X4646500Y4358773D1*
X4640323Y4364950D1*
X4622213Y4370987D1*
X4567463D1*
Y4243377D1*
X4703966Y4370846D2*
X4770648D1*
X4734289Y4322273D1*
X4752539D1*
X4764612Y4316237D1*
X4770648Y4310200D1*
X4776825Y4291950D1*
Y4279877D1*
X4770648Y4261627D1*
X4758575Y4249414D1*
X4740325Y4243377D1*
X4722075D1*
X4703966Y4249414D1*
X4697929Y4255590D1*
X4691752Y4267664D1*
X4522693Y3800987D2*
Y3673377D1*
X4480156Y3800987D2*
X4565230D1*
X4604445Y3734164D2*
X4659195D1*
X4677305Y3740200D1*
X4683482Y3746377D1*
X4689518Y3758450D1*
Y3776700D1*
X4683482Y3788773D1*
X4677305Y3794950D1*
X4659195Y3800987D1*
X4604445D1*
Y3673377D1*
X4789520D2*
Y3800846D1*
X4728734Y3715914D1*
X4819844D1*
X3425711Y1510987D2*
Y1383377D1*
X3383175Y1510987D2*
X3468248D1*
X3507463Y1444164D2*
X3562213D1*
X3580323Y1450200D1*
X3586500Y1456377D1*
X3592537Y1468450D1*
Y1486700D1*
X3586500Y1498773D1*
X3580323Y1504950D1*
X3562213Y1510987D1*
X3507463D1*
Y1383377D1*
X3704612Y1510846D2*
X3643966D1*
X3637929Y1456237D1*
X3643966Y1462273D1*
X3662216Y1468450D1*
X3680325D1*
X3698575Y1462273D1*
X3710789Y1450200D1*
X3716825Y1431950D1*
Y1419877D1*
X3710789Y1401627D1*
X3698575Y1389414D1*
X3680325Y1383377D1*
X3662216D1*
X3643966Y1389414D1*
X3637929Y1395590D1*
X3631752Y1407664D1*
X3428800Y2010987D2*
Y1883377D1*
X3386263Y2010987D2*
X3471336D1*
X3510552Y1944164D2*
X3565302D1*
X3583412Y1950200D1*
X3589588Y1956377D1*
X3595625Y1968450D1*
Y1986700D1*
X3589588Y1998773D1*
X3583412Y2004950D1*
X3565302Y2010987D1*
X3510552D1*
Y1883377D1*
X3707700Y1992737D2*
X3701664Y2004810D1*
X3683414Y2010846D1*
X3671341D1*
X3653091Y2004810D1*
X3640877Y1986560D1*
X3634841Y1956237D1*
Y1925914D1*
X3640877Y1901627D1*
X3653091Y1889414D1*
X3671341Y1883377D1*
X3677377D1*
X3695487Y1889414D1*
X3707700Y1901627D1*
X3713737Y1919877D1*
Y1925914D1*
X3707700Y1944164D1*
X3695487Y1956237D1*
X3677377Y1962273D1*
X3671341D1*
X3653091Y1956237D1*
X3640877Y1944164D1*
X3634841Y1925914D1*
X4835711Y3370987D2*
Y3243377D1*
X4793175Y3370987D2*
X4878248D1*
X4917463Y3304164D2*
X4972213D1*
X4990323Y3310200D1*
X4996500Y3316377D1*
X5002537Y3328450D1*
Y3346700D1*
X4996500Y3358773D1*
X4990323Y3364950D1*
X4972213Y3370987D1*
X4917463D1*
Y3243377D1*
X5066039D2*
X5126825Y3370846D1*
X5041752D1*
X3425781Y2520987D2*
Y2393377D1*
X3383245Y2520987D2*
X3468318D1*
X3507534Y2454164D2*
X3562284D1*
X3580393Y2460200D1*
X3586570Y2466377D1*
X3592607Y2478450D1*
Y2496700D1*
X3586570Y2508773D1*
X3580393Y2514950D1*
X3562284Y2520987D1*
X3507534D1*
Y2393377D1*
X3662145Y2520846D2*
X3644036Y2514810D1*
X3637859Y2502737D1*
Y2490523D1*
X3644036Y2478450D1*
X3656109Y2472273D1*
X3680395Y2466237D1*
X3698645Y2460200D1*
X3710719Y2447987D1*
X3716755Y2435914D1*
Y2417664D1*
X3710719Y2405590D1*
X3704682Y2399414D1*
X3686432Y2393377D1*
X3662145D1*
X3644036Y2399414D1*
X3637859Y2405590D1*
X3631822Y2417664D1*
Y2435914D1*
X3637859Y2447987D1*
X3650072Y2460200D1*
X3668182Y2466237D1*
X3692469Y2472273D1*
X3704682Y2478450D1*
X3710719Y2490523D1*
Y2502737D1*
X3704682Y2514810D1*
X3686432Y2520846D1*
X3662145D1*
X5028730Y3790987D2*
Y3663377D1*
X4986193Y3790987D2*
X5071266D1*
X5110482Y3724164D2*
X5165232D1*
X5183341Y3730200D1*
X5189518Y3736377D1*
X5195555Y3748450D1*
Y3766700D1*
X5189518Y3778773D1*
X5183341Y3784950D1*
X5165232Y3790987D1*
X5110482D1*
Y3663377D1*
X5313807Y3748450D2*
X5307630Y3730200D1*
X5295557Y3717987D1*
X5277307Y3711950D1*
X5271270D1*
X5253020Y3717987D1*
X5240947Y3730200D1*
X5234770Y3748450D1*
Y3754487D1*
X5240947Y3772737D1*
X5253020Y3784810D1*
X5271270Y3790846D1*
X5277307D1*
X5295557Y3784810D1*
X5307630Y3772737D1*
X5313807Y3748450D1*
Y3717987D1*
X5307630Y3687664D1*
X5295557Y3669414D1*
X5277307Y3663377D1*
X5265234D1*
X5246984Y3669414D1*
X5240947Y3681627D1*
X3390872Y3060987D2*
Y2933377D1*
X3348335Y3060987D2*
X3433408D1*
X3472624Y2994164D2*
X3527374D1*
X3545484Y3000200D1*
X3551660Y3006377D1*
X3557697Y3018450D1*
Y3036700D1*
X3551660Y3048773D1*
X3545484Y3054950D1*
X3527374Y3060987D1*
X3472624D1*
Y2933377D1*
X3596913Y3036560D2*
X3609126Y3042737D1*
X3627376Y3060846D1*
Y2933377D1*
X3703092Y3060846D2*
X3684842Y3054810D1*
X3672628Y3036560D1*
X3666592Y3006237D1*
Y2987987D1*
X3672628Y2957664D1*
X3684842Y2939414D1*
X3703092Y2933377D1*
X3715165D1*
X3733415Y2939414D1*
X3745488Y2957664D1*
X3751665Y2987987D1*
Y3006237D1*
X3745488Y3036560D1*
X3733415Y3054810D1*
X3715165Y3060846D1*
X3703092D1*
X3745488Y3036560D2*
X3672628Y2957664D1*
X5078176Y4333987D2*
Y4206377D1*
X5035640Y4333987D2*
X5120713D1*
X5159929Y4267164D2*
X5214679D1*
X5232788Y4273200D1*
X5238965Y4279377D1*
X5245002Y4291450D1*
Y4309700D1*
X5238965Y4321773D1*
X5232788Y4327950D1*
X5214679Y4333987D1*
X5159929D1*
Y4206377D1*
X5284217Y4309560D2*
X5296431Y4315737D1*
X5314681Y4333846D1*
Y4206377D1*
X5353897Y4309560D2*
X5366110Y4315737D1*
X5384360Y4333846D1*
Y4206377D1*
X3505610Y4315837D2*
Y4224727D1*
X3511646Y4206477D1*
X3523860Y4194404D1*
X3542110Y4188227D1*
X3554183D1*
X3572433Y4194404D1*
X3584646Y4206477D1*
X3590683Y4224727D1*
Y4315837D1*
X3714971Y4297587D2*
X3702898Y4309800D1*
X3684648Y4315837D1*
X3660362D1*
X3642112Y4309800D1*
X3629898Y4297587D1*
Y4285514D1*
X3636075Y4273300D1*
X3642112Y4267264D1*
X3654185Y4261227D1*
X3690685Y4249014D1*
X3702898Y4242977D1*
X3708935Y4236800D1*
X3714971Y4224727D1*
Y4206477D1*
X3702898Y4194404D1*
X3684648Y4188227D1*
X3660362D1*
X3642112Y4194404D1*
X3629898Y4206477D1*
X3754187Y4291410D2*
X3766400Y4297587D1*
X3784650Y4315696D1*
Y4188227D1*
X3986305Y4315837D2*
Y4224727D1*
X3992341Y4206477D1*
X4004555Y4194404D1*
X4022805Y4188227D1*
X4034878D1*
X4053128Y4194404D1*
X4065341Y4206477D1*
X4071378Y4224727D1*
Y4315837D1*
X4195667Y4297587D2*
X4183593Y4309800D1*
X4165343Y4315837D1*
X4141057D1*
X4122807Y4309800D1*
X4110593Y4297587D1*
Y4285514D1*
X4116770Y4273300D1*
X4122807Y4267264D1*
X4134880Y4261227D1*
X4171380Y4249014D1*
X4183593Y4242977D1*
X4189630Y4236800D1*
X4195667Y4224727D1*
Y4206477D1*
X4183593Y4194404D1*
X4165343Y4188227D1*
X4141057D1*
X4122807Y4194404D1*
X4110593Y4206477D1*
X4241059Y4285373D2*
Y4291410D1*
X4247096Y4303623D1*
X4253132Y4309660D1*
X4265346Y4315696D1*
X4289632D1*
X4301705Y4309660D1*
X4307742Y4303623D1*
X4313919Y4291410D1*
Y4279337D1*
X4307742Y4267123D1*
X4295669Y4249014D1*
X4234882Y4188227D1*
X4319955D1*
X2434013Y1703210D2*
X2494800Y1751783D1*
X2561623D1*
X2434013Y1800356D2*
X2494800Y1751783D1*
X2434013Y1918468D2*
Y1839572D1*
X2561623D1*
Y1918468D1*
X2494800Y1839572D2*
Y1888145D1*
X2434013Y1957684D2*
X2561623D1*
Y2030543D1*
X1133277Y1671765D2*
D54*
X1286408D1*
Y1759196D1*
X1155177Y1908343D2*
X1140521Y1893855D1*
X1133277Y1871955D1*
Y1842811D1*
X1140521Y1820911D1*
X1155177Y1806255D1*
X1169665D1*
X1184321Y1813668D1*
X1191565Y1820911D1*
X1198808Y1835399D1*
X1213465Y1879199D1*
X1220708Y1893855D1*
X1228121Y1901099D1*
X1242608Y1908343D1*
X1264508D1*
X1278996Y1893855D1*
X1286408Y1871955D1*
Y1842811D1*
X1278996Y1820911D1*
X1264508Y1806255D1*
X1133445Y2147337D2*
X1140689Y2125437D1*
X1162589Y2110781D1*
X1198977Y2103537D1*
X1220877D1*
X1257265Y2110781D1*
X1279164Y2125437D1*
X1286408Y2147337D1*
Y2161825D1*
X1279164Y2183725D1*
X1257265Y2198213D1*
X1220877Y2205625D1*
X1198977D1*
X1162589Y2198213D1*
X1140689Y2183725D1*
X1133445Y2161825D1*
Y2147337D1*
X1162589Y2198213D2*
X1257265Y2110781D1*
X1133445Y2296484D2*
X1140689Y2274584D1*
X1162589Y2259928D1*
X1198977Y2252684D1*
X1220877D1*
X1257264Y2259928D1*
X1279164Y2274584D1*
X1286408Y2296484D1*
Y2310972D1*
X1279164Y2332872D1*
X1257264Y2347359D1*
X1220877Y2354772D1*
X1198977D1*
X1162589Y2347359D1*
X1140689Y2332872D1*
X1133445Y2310972D1*
Y2296484D1*
X1162589Y2347359D2*
X1257264Y2259928D1*
X1162589Y2401830D2*
X1155177Y2416487D1*
X1133445Y2438387D1*
X1286408D1*
X1169665Y2742913D2*
X1155177Y2735669D1*
X1140521Y2721013D1*
X1133277Y2706525D1*
Y2677381D1*
X1140521Y2662725D1*
X1155177Y2648237D1*
X1169665Y2640825D1*
X1191565Y2633581D1*
X1228121D1*
X1249852Y2640825D1*
X1264508Y2648237D1*
X1278996Y2662725D1*
X1286408Y2677381D1*
Y2706525D1*
X1278996Y2721013D1*
X1264508Y2735669D1*
X1249852Y2742913D1*
X1228121D1*
Y2706525D1*
X1206221Y2789971D2*
Y2855503D1*
X1198808Y2877403D1*
X1191564Y2884815D1*
X1177077Y2892059D1*
X1162421D1*
X1147933Y2884815D1*
X1140521Y2877403D1*
X1133277Y2855503D1*
Y2789971D1*
X1286408D1*
X1206221Y2841015D2*
X1286408Y2892059D1*
X1133277Y2982918D2*
X1140521Y2968262D1*
X1155177Y2953774D1*
X1169664Y2946362D1*
X1191564Y2939118D1*
X1228121D1*
X1249852Y2946362D1*
X1264508Y2953774D1*
X1278996Y2968262D1*
X1286408Y2982918D1*
Y3012062D1*
X1278996Y3026550D1*
X1264508Y3041206D1*
X1249852Y3048450D1*
X1228121Y3055693D1*
X1191564D1*
X1169664Y3048450D1*
X1155177Y3041206D1*
X1140521Y3026550D1*
X1133277Y3012062D1*
Y2982918D1*
Y3102752D2*
X1242608D1*
X1264508Y3109996D1*
X1278996Y3124652D1*
X1286408Y3146552D1*
Y3161040D1*
X1278996Y3182940D1*
X1264508Y3197596D1*
X1242608Y3204840D1*
X1133277D1*
X1213464Y3251899D2*
Y3317599D1*
X1206221Y3339330D1*
X1198808Y3346743D1*
X1184321Y3353986D1*
X1162421D1*
X1147933Y3346743D1*
X1140521Y3339330D1*
X1133277Y3317599D1*
Y3251899D1*
X1286408D1*
X1162589Y3549181D2*
X1155177Y3563837D1*
X1133445Y3585737D1*
X1286408D1*
X1169833Y3640208D2*
X1162589D1*
X1147933Y3647452D1*
X1140689Y3654696D1*
X1133445Y3669352D1*
Y3698496D1*
X1140689Y3712984D1*
X1147933Y3720227D1*
X1162589Y3727640D1*
X1177077D1*
X1191733Y3720227D1*
X1213464Y3705740D1*
X1286408Y3632796D1*
Y3734884D1*
M02*
